<?xml version="1.0" ?>
<!-- Uploaded to: SVG Repo, www.svgrepo.com, Generator: SVG Repo Mixer Tools -->
<svg width="800px" height="800px" viewBox="0 0 64 64" xmlns="http://www.w3.org/2000/svg">
<defs>
<style>.cls-1{fill:#d0e1e8;}.cls-2{fill:#f0f4f7;}.cls-3{fill:#f6e782;}.cls-4{fill:#f5d96d;}.cls-5{fill:#748a95;}.cls-6{fill:#617880;}.cls-7{fill:#e5936b;}.cls-8{fill:#e17c46;}</style>
</defs>
<g id="Museum">
<path class="cls-1" d="M18.63,28H46.4v25.7H18.63Z" id="rect693533"/>
<path class="cls-2" d="M27.63,29.66a2.74,2.74,0,0,0-2.74,2.74v3.32a1.77,1.77,0,0,1-3.53,0l-3.1-1.95,1.45-5.58Z" id="rect38662-6"/>
<path class="cls-3" d="M40.33,16.79l8.19,8.38-16,2.14-17-2.14L27.75,12.62l3.31-3.23Z" id="path38221-0"/>
<path class="cls-4" d="M34.13,10.44l-1.31.35-.22-.17-.6,0a6,6,0,0,0-3,.78L28.4,12l-.65.64-.49.49a2,2,0,0,0,3.32,2.06,3.08,3.08,0,0,1,.68-.53L34.89,18v4.91a2,2,0,0,0,4,0v-1.2l3.84,3.56,5.79-.1Z" id="path729914"/>
<path class="cls-5" d="M16.25,27.63h5.11v25H16.25Z" id="rect34154-4"/>
<path class="cls-5" d="M42.64,27.63h5.11v25H42.64Z" id="path34259-4"/>
<path class="cls-6" d="M30.41,41.63h3.18a1.77,1.77,0,0,1,1.77,1.77v7.22l-3.13,1.65-3.59-1.65V43.4A1.77,1.77,0,0,1,30.41,41.63Z" id="path34261-4"/>
<path class="cls-7" d="M14.25,50.62h35.5a2.69,2.69,0,0,1,0,5.38H14.25a2.69,2.69,0,1,1,0-5.38Z" id="rect33441-0"/>
<path class="cls-2" d="M28.26,33.55h7.47a1,1,0,0,1,1,1v2.61a1,1,0,0,1-1,1H28.26a1,1,0,0,1-1-1V34.51A1,1,0,0,1,28.26,33.55Z" id="rect34583-4"/>
<path class="cls-7" d="M14.18,25.17H49.82a2.25,2.25,0,0,1,0,4.49H14.18a2.25,2.25,0,0,1,0-4.49Z" id="path33546-3"/>
<path class="cls-2" d="M32,8a6,6,0,0,0-4.28,1.79,2,2,0,1,0,2.86,2.79,1.75,1.75,0,0,1,2.84,0l1.47,1.51v6.23a2,2,0,0,0,4,0v-3a2,2,0,0,0,1.44-.56,2,2,0,0,0,0-2.83L36.28,9.79A6,6,0,0,0,32,8Z" id="path35134-7"/>
<path class="cls-2" d="M23.13,40.75a1.76,1.76,0,0,1,1.76,1.77v2.94a1.77,1.77,0,1,1-3.53,0l-.7-1.53.7-1.41A1.77,1.77,0,0,1,23.13,40.75Z" id="rect39103-3"/>
<path class="cls-2" d="M40.87,38.37a1.77,1.77,0,0,1,1.77,1.77v3a1.77,1.77,0,1,1-3.53,0v-3A1.76,1.76,0,0,1,40.87,38.37Z" id="path39208-1"/>
<path class="cls-6" d="M18.6,29.66h2.76v21H18.6Z" id="path704936"/>
<path class="cls-6" d="M45,29.66h2.76v21H45Z" id="path704938"/>
<path class="cls-8" d="M45.18,50.62a2.69,2.69,0,0,1,0,5.38h4.57a2.69,2.69,0,0,0,0-5.38Z" id="path710749"/>
<path class="cls-8" d="M45.24,25.17a2.25,2.25,0,1,1,0,4.49h4.58a2.25,2.25,0,0,0,0-4.49Z" id="path707767"/>
<path d="M15.25,49.62h-1a3.69,3.69,0,1,0,0,7.38h35.5a3.69,3.69,0,0,0,0-7.38h-1v-19h1.07a3.25,3.25,0,0,0,0-6.49h-.88l-7.33-7.5a3,3,0,0,0-.53-3.41L37,9.09a7,7,0,0,0-10,0,3,3,0,0,0-.54,3.41L15.06,24.17h-.88a3.25,3.25,0,0,0,0,6.49h1.07Zm9.09-19a3.78,3.78,0,0,0-.45,1.74v3.32a.75.75,0,0,1-.77.76.76.76,0,0,1-.76-.76V30.66Zm17.3,0V37.5a2.44,2.44,0,0,0-.77-.13,2.77,2.77,0,0,0-2.76,2.77v3a2.77,2.77,0,0,0,2.76,2.77,2.44,2.44,0,0,0,.77-.13v3.89H36.36V43.4a2.78,2.78,0,0,0-2.77-2.77H30.41a2.78,2.78,0,0,0-2.77,2.77v6.22H22.36V48.11a2.73,2.73,0,0,0,3.53-2.65V42.52a2.73,2.73,0,0,0-3.53-2.65V38.36a2.73,2.73,0,0,0,3.53-2.64V32.4a1.74,1.74,0,0,1,1.74-1.74Zm0,12.43a.76.76,0,0,1-.77.77.77.77,0,0,1-.76-.77v-3a.77.77,0,1,1,1.53,0Zm2-2h3.11v2.64H43.64Zm3.11-2H43.64V36.51h3.11ZM34.36,49.62H29.64V43.4a.78.78,0,0,1,.77-.77h3.18a.78.78,0,0,1,.77.77ZM17.25,41.14h3.11v2.64H17.25Zm5.11,1.38a.77.77,0,1,1,1.53,0v2.94a.77.77,0,1,1-1.53,0Zm-2-3.38H17.25V36.51h3.11Zm-3.11,6.64h3.11v3.84H17.25Zm34.19,7.53A1.69,1.69,0,0,1,49.75,55H14.25a1.69,1.69,0,1,1,0-3.38h35.5A1.69,1.69,0,0,1,51.44,53.31Zm-7.8-3.69V45.78h3.11v3.84Zm3.11-15.11H43.64V30.66h3.11Zm-18.32-24a5,5,0,0,1,7.14,0l4.08,4.17a1,1,0,0,1,0,1.41,1.07,1.07,0,0,1-.72.28,1,1,0,0,0-.73.28,1,1,0,0,0-.3.72v3a1,1,0,0,1-2,0V14.09a1,1,0,0,0-.28-.7l-1.47-1.51a2.74,2.74,0,0,0-4.28,0,1,1,0,0,1-.7.3.89.89,0,0,1-.71-.28A1,1,0,0,1,28.43,10.49ZM27.9,13.9a3,3,0,0,0,3.39-.62c.54-.55.88-.55,1.42,0l1.18,1.21v5.83a3,3,0,0,0,6,0V18.19a2.39,2.39,0,0,0,.28-.13l6,6.11H17.85Zm-15,13.52a1.25,1.25,0,0,1,1.24-1.25H49.82a1.25,1.25,0,0,1,0,2.49H14.18A1.25,1.25,0,0,1,12.94,27.42Zm7.42,3.24v3.85H17.25V30.66Z"/>
<path d="M26.3,37.12a2,2,0,0,0,2,2h7.47a2,2,0,0,0,2-2V34.51a2,2,0,0,0-2-2H28.26a2,2,0,0,0-2,2Zm2-2.57,7.4,0,0,2.57-7.43,0Z"/>
</g>
</svg>