<?xml version="1.0" encoding="iso-8859-1"?>
<!-- Uploaded to: SVG Repo, www.svgrepo.com, Generator: SVG Repo Mixer Tools -->
<svg height="800px" width="800px" version="1.1" id="Capa_1" xmlns="http://www.w3.org/2000/svg" xmlns:xlink="http://www.w3.org/1999/xlink" 
	 viewBox="0 0 465 465" xml:space="preserve">
<g>
	<path style="fill:#0C80E4;" d="M267.533,15h-17.589c28.011,17.489,46.683,48.546,46.683,83.878v13c0,0.001,0,0.001,0,0.002h15
		c0-0.001,0-0.001,0-0.002c0-4.143,3.357-7.5,7.5-7.5h32.5v-5.5C351.627,52.628,313.902,15,267.533,15z"/>
	<path style="fill:#FF9926;" d="M272.211,396.788c2.798,1.308,5.227,3.273,7.095,5.692h17.34c0.001-4.142,3.358-7.499,7.5-7.499
		h23.169c3.615-38.736,21.486-231.108,24.014-275.604h-32.202c-4.142,0-7.499-3.356-7.5-7.498h-15
		C296.626,134.479,276.099,355.192,272.211,396.788z"/>
	<path style="fill:#E43017;" d="M283.283,414.119v31.743c0,1.422-0.168,2.803-0.463,4.138h51.325c2.281,0,4.138-1.856,4.138-4.138
		v-31.743c0-2.278-1.852-4.131-4.128-4.137c0,0,0,0-0.001,0c-0.007,0-0.014-0.001-0.02-0.001h-29.989c-4.143,0-7.5-3.357-7.5-7.5
		v-0.001h-17.34C281.795,405.704,283.283,409.737,283.283,414.119z"/>
	<path style="fill:#00E4C5;" d="M222.165,139.646c4.142,0,7.5,3.357,7.5,7.5v34.838c11.161-3.253,19.34-13.577,19.34-25.774
		c0-21.544,13.165-41.173,32.622-49.551v-7.78c0-26.824-12.704-50.729-32.41-66.093c-3.105,18.015-9.064,51.96-12.119,65.201
		c-3.398,14.735-17.229,30.595-39.565,30.595s-36.167-15.859-39.565-30.595c-1.911-8.285-4.959-24.674-7.734-40.197
		c-0.337-0.852-0.528-1.778-0.528-2.751c0-0.055,0.007-0.108,0.008-0.162c-1.464-8.234-2.825-16.057-3.865-22.092
		c-19.706,15.365-32.411,39.27-32.411,66.095v7.78c19.458,8.377,32.623,28.007,32.623,49.551c0,12.197,8.179,22.521,19.34,25.774
		v-34.838c0-4.143,3.358-7.5,7.5-7.5c3.877,0,7.066,2.941,7.458,6.714h34.345C215.099,142.587,218.288,139.646,222.165,139.646z"/>
	<path style="fill:#FECC33;" d="M183.588,394.981h73.726c3.501-37.511,20.37-219.095,23.729-270.949
		c-10.388,7.124-17.039,19.162-17.039,32.176c0,23.071-18.77,41.841-41.84,41.841c-4.142,0-7.5-3.357-7.5-7.5v-43.404
		c0-0.265,0.015-0.527,0.042-0.786h-34.345c0.027,0.258,0.042,0.52,0.042,0.786v43.404c0,4.143-3.358,7.5-7.5,7.5
		c-23.071,0-41.84-18.77-41.84-41.841c0-13.028-6.664-25.078-17.072-32.199c3.461,53.264,20.42,235.278,23.761,270.971h15.836
		c4.142,0,7.499,3.357,7.5,7.499h15C176.089,398.338,179.446,394.981,183.588,394.981z M167.599,265.906l20.027-20.026
		l-20.027-20.026c-2.929-2.93-2.929-7.678,0-10.607c2.929-2.928,7.678-2.928,10.606,0l20.027,20.027l20.027-20.027
		c2.929-2.928,7.678-2.928,10.606,0c2.929,2.93,2.929,7.678,0,10.607L208.84,245.88l20.027,20.026c2.929,2.93,2.929,7.678,0,10.607
		c-1.464,1.464-3.384,2.196-5.303,2.196s-3.839-0.732-5.303-2.196l-20.027-20.027l-20.027,20.027
		c-1.464,1.464-3.384,2.196-5.303,2.196c-1.919,0-3.839-0.732-5.303-2.196C164.67,273.584,164.67,268.836,167.599,265.906z"/>
	<path style="fill:#FF9926;" d="M268.283,445.862v-31.743c0-2.278-1.852-4.131-4.128-4.137h-0.001c-0.007,0-0.014-0.001-0.02-0.001
		h-80.546c-4.142,0-7.5-3.357-7.5-7.5l0-0.001h-15l0,0.001c0,4.143-3.358,7.5-7.5,7.5h-22.667c-2.282,0-4.138,1.856-4.138,4.138
		v31.743c0,2.281,1.856,4.138,4.138,4.138h133.225C266.427,450,268.283,448.144,268.283,445.862z"/>
	<path style="fill:#FECC33;" d="M163.653,47.538h67.761c1.691-9.582,3.177-18.206,4.078-23.47C224.08,18.284,211.187,15,197.533,15
		c-13.654,0-26.546,3.283-37.958,9.068C160.476,29.332,161.962,37.956,163.653,47.538z"/>
	<path style="fill:#FF9926;" d="M197.534,113.58c14.136,0,22.842-9.831,24.949-18.966c1.541-6.679,3.905-19.148,6.25-32.076h-62.397
		c2.345,12.929,4.709,25.397,6.25,32.076C174.692,103.749,183.398,113.58,197.534,113.58z"/>
	<path d="M366.627,98.878C366.627,44.356,322.174,0,267.533,0h-70c-17.933,0-34.768,4.778-49.295,13.124
		c-0.559,0.247-1.081,0.552-1.553,0.917C117.807,31.34,98.439,62.893,98.439,98.878v11.337c-0.039,0.311-0.066,0.626-0.066,0.948
		c0,23.376,20.763,245.955,24.481,285.626c-6.527,3.051-11.071,9.662-11.071,17.33v31.743c0,10.553,8.585,19.138,19.138,19.138
		h133.225h70c10.553,0,19.138-8.585,19.138-19.138v-31.743c0-7.669-4.544-14.28-11.072-17.331
		c3.888-41.597,24.416-262.322,24.416-284.91V98.878z M351.627,104.378h-32.5c-4.143,0-7.5,3.357-7.5,7.5c0,0.001,0,0.001,0,0.002
		c0.001,4.142,3.358,7.498,7.5,7.498h32.202c-2.528,44.495-20.399,236.867-24.014,275.604h-23.169c-4.142,0-7.499,3.357-7.5,7.499
		v0.001c0,4.143,3.357,7.5,7.5,7.5h29.989c0.007,0,0.014,0.001,0.02,0.001c0,0,0,0,0,0c2.277,0.005,4.128,1.859,4.128,4.137v31.743
		c0,2.281-1.856,4.138-4.138,4.138H282.82c0.296-1.334,0.463-2.716,0.463-4.138v-31.743c0-4.382-1.488-8.415-3.978-11.639
		c-1.868-2.419-4.297-4.384-7.095-5.692c3.888-41.596,24.415-262.309,24.416-284.908c0-0.001,0-0.001,0-0.002v-13
		c0-35.332-18.672-66.389-46.683-83.878h17.589c46.369,0,84.094,37.628,84.094,83.878V104.378z M130.921,450
		c-2.282,0-4.138-1.856-4.138-4.138v-31.743c0-2.281,1.856-4.138,4.138-4.138h22.667c4.142,0,7.5-3.357,7.5-7.5l0-0.001
		c-0.001-4.142-3.358-7.499-7.5-7.499h-15.836c-3.341-35.694-20.3-217.707-23.761-270.971c10.407,7.121,17.072,19.171,17.072,32.199
		c0,23.071,18.77,41.841,41.84,41.841c4.142,0,7.5-3.357,7.5-7.5v-43.404c0-0.265-0.015-0.527-0.042-0.786
		c-0.393-3.773-3.582-6.714-7.458-6.714c-4.142,0-7.5,3.357-7.5,7.5v34.838c-11.161-3.253-19.34-13.577-19.34-25.774
		c0-21.544-13.165-41.174-32.623-49.551v-7.78c0-26.824,12.705-50.73,32.411-66.095c1.04,6.035,2.401,13.859,3.865,22.092
		c-0.001,0.055-0.008,0.108-0.008,0.162c0,0.972,0.191,1.898,0.528,2.751c2.775,15.522,5.823,31.912,7.734,40.197
		c3.398,14.735,17.229,30.595,39.565,30.595s36.167-15.859,39.565-30.595c3.055-13.241,9.013-47.186,12.119-65.201
		c19.705,15.365,32.41,39.27,32.41,66.093v7.78c-19.457,8.378-32.622,28.007-32.622,49.551c0,12.197-8.18,22.521-19.34,25.774
		v-34.838c0-4.143-3.358-7.5-7.5-7.5c-3.877,0-7.066,2.941-7.458,6.714c-0.027,0.258-0.042,0.52-0.042,0.786v43.404
		c0,4.143,3.358,7.5,7.5,7.5c23.071,0,41.84-18.77,41.84-41.841c0-13.015,6.65-25.052,17.039-32.176
		c-3.359,51.854-20.229,233.437-23.729,270.949h-73.726c-4.142,0-7.499,3.357-7.5,7.499l0,0.001c0,4.143,3.358,7.5,7.5,7.5h80.546
		c0.007,0,0.014,0.001,0.02,0.001h0.001c2.277,0.005,4.128,1.859,4.128,4.137v31.743c0,2.281-1.856,4.138-4.138,4.138H130.921z
		 M228.733,62.538c-2.345,12.929-4.709,25.397-6.25,32.076c-2.107,9.135-10.813,18.966-24.949,18.966s-22.842-9.831-24.949-18.966
		c-1.541-6.679-3.905-19.148-6.25-32.076H228.733z M235.492,24.069c-0.901,5.264-2.387,13.888-4.078,23.47h-67.761
		c-1.692-9.582-3.177-18.206-4.078-23.47C170.987,18.283,183.879,15,197.533,15C211.187,15,224.08,18.284,235.492,24.069z"/>
	<path d="M178.206,276.514l20.027-20.027l20.027,20.027c1.464,1.464,3.384,2.196,5.303,2.196s3.839-0.732,5.303-2.196
		c2.929-2.93,2.929-7.678,0-10.607L208.84,245.88l20.027-20.026c2.929-2.93,2.929-7.678,0-10.607c-2.928-2.928-7.677-2.928-10.606,0
		l-20.027,20.027l-20.027-20.027c-2.929-2.928-7.678-2.928-10.606,0c-2.929,2.93-2.929,7.678,0,10.607l20.027,20.026l-20.027,20.026
		c-2.929,2.93-2.929,7.678,0,10.607c1.464,1.464,3.384,2.196,5.303,2.196C174.821,278.71,176.741,277.978,178.206,276.514z"/>
</g>
</svg>