<?xml version="1.0" encoding="iso-8859-1"?>
<!-- Uploaded to: SVG Repo, www.svgrepo.com, Generator: SVG Repo Mixer Tools -->
<svg height="800px" width="800px" version="1.1" id="Layer_1" xmlns="http://www.w3.org/2000/svg" xmlns:xlink="http://www.w3.org/1999/xlink" 
	 viewBox="0 0 512 512" xml:space="preserve">
<path style="fill:#EAFFFF;" d="M439.242,482.358H72.758c-23.812,0-43.116-19.304-43.116-43.116V72.758
	c0-23.812,19.304-43.116,43.116-43.116h366.484c23.812,0,43.116,19.304,43.116,43.116v366.484
	C482.358,463.054,463.054,482.358,439.242,482.358z"/>
<path style="fill:#A9D5BB;" d="M482.358,503.916H29.642c-11.906,0-21.558-9.651-21.558-21.558v-75.453
	c0-11.906,9.651-21.558,21.558-21.558h452.716c11.906,0,21.558,9.651,21.558,21.558v75.453
	C503.916,494.265,494.264,503.916,482.358,503.916z"/>
<path style="fill:#FFFF81;" d="M191.326,99.706c0,50.601-41.02,91.621-91.621,91.621S8.084,150.306,8.084,99.706
	S49.105,8.085,99.705,8.085S191.326,49.105,191.326,99.706z"/>
<path style="fill:#FFF145;" d="M148.211,99.706c0,26.789-21.716,48.505-48.505,48.505S51.2,126.495,51.2,99.706
	S72.917,51.2,99.705,51.2S148.211,72.917,148.211,99.706z"/>
<path style="fill:#DDB961;" d="M450.021,406.906L450.021,406.906c0,11.906-9.651,21.558-21.558,21.558H83.537
	c-11.906,0-21.558-9.651-21.558-21.558l0,0c0-29.765,24.13-53.895,53.895-53.895h280.253
	C425.891,353.011,450.021,377.141,450.021,406.906z"/>
<path style="fill:#CEA455;" d="M66.476,385.348h379.047c2.886,6.603,4.497,13.891,4.497,21.558l0,0
	c0,11.906-9.651,21.558-21.558,21.558H83.536c-11.906,0-21.558-9.651-21.558-21.558l0,0
	C61.979,399.239,63.591,391.951,66.476,385.348z"/>
<path style="fill:#7F932A;" d="M42.818,152.983L42.818,152.983c18.241-15.306,45.436-12.927,60.743,5.314l55.429,66.058l0,0
	c-18.241,15.306-45.436,12.927-60.743-5.314L42.818,152.983z"/>
<path style="fill:#606D11;" d="M162.385,208.261c-15.306,18.241-42.501,20.62-60.743,5.314l0,0l55.429-66.058
	c15.306-18.241,42.501-20.62,60.743-5.314l0,0L162.385,208.261z"/>
<path style="fill:#9FBA41;" d="M137.432,212.885c0,23.812-19.304,43.116-43.116,43.116H8.084l0,0
	c0-23.812,19.304-43.116,43.116-43.116H137.432L137.432,212.885z"/>
<g>
	<path style="fill:#7F932A;" d="M126.653,212.885h86.232C236.696,212.885,256,232.189,256,256l0,0h-86.232
		C145.957,256,126.653,236.696,126.653,212.885L126.653,212.885z"/>
	<path style="fill:#7F932A;" d="M289.536,18.173L289.536,18.173c18.241-15.306,45.436-12.927,60.743,5.314l55.429,66.058l0,0
		c-18.241,15.306-45.437,12.927-60.743-5.314L289.536,18.173z"/>
</g>
<path style="fill:#606D11;" d="M361.45,97.011l48.188-57.428c15.306-18.241,42.501-20.62,60.743-5.314l-52.648,62.742H361.45z"/>
<path style="fill:#7F932A;" d="M374.569,88.853H460.8c23.812,0,43.116,19.304,43.116,43.116l0,0h-86.232
	C393.873,131.969,374.569,112.666,374.569,88.853L374.569,88.853z"/>
<path style="fill:#9FBA41;" d="M385.348,88.853c0,23.812-19.304,43.116-43.116,43.116H256l0,0c0-23.812,19.304-43.116,43.116-43.116
	H385.348L385.348,88.853z"/>
<path d="M0,256.001c0-28.231,22.969-51.2,51.2-51.2h24.545l-39.119-46.62c-2.87-3.42-2.424-8.519,0.996-11.389
	c10.478-8.791,23.746-12.977,37.374-11.785c13.625,1.192,25.969,7.617,34.759,18.095l7.271,8.666c2.87,3.42,2.424,8.52-0.997,11.389
	c-3.418,2.869-8.519,2.423-11.388-0.997l-7.271-8.666c-10.628-12.666-28.384-15.91-42.555-8.793l42.039,50.101h5.008
	c4.466,0,8.084,3.62,8.084,8.084c0,4.465-3.618,8.084-8.084,8.084h-8.718c-0.038,0-0.075,0-0.113,0H51.2
	c-16.535,0-30.431,11.515-34.091,26.947h77.206c16.535,0,30.431-11.515,34.091-26.947h-1.754c-4.466,0-8.084-3.62-8.084-8.084
	c0-4.465,3.618-8.084,8.084-8.084h27.983c0.538-0.562,1.057-1.141,1.556-1.736l49.633-59.149
	c-5.748-2.901-12.209-4.154-18.779-3.581c-9.322,0.816-17.768,5.213-23.783,12.381l-36.761,43.808
	c-2.87,3.42-7.969,3.866-11.389,0.996c-3.42-2.87-3.866-7.969-0.996-11.389l36.761-43.808c18.147-21.626,50.505-24.457,72.133-6.311
	c1.642,1.379,2.67,3.352,2.856,5.489c0.186,2.135-0.483,4.259-1.862,5.901l-48.165,57.4h37.043c28.231,0,51.2,22.968,51.2,51.2
	c0,4.465-3.618,8.084-8.084,8.084h-86.232c-4.33,0-8.635-0.542-12.794-1.614c-4.325-1.113-6.928-5.521-5.815-9.844
	c1.113-4.325,5.524-6.927,9.844-5.814c2.845,0.732,5.793,1.103,8.764,1.103h77.206c-3.659-15.432-17.556-26.947-34.091-26.947
	h-54.951c-0.031,0-0.064,0-0.095,0h-12.96c-0.832,5.228-2.458,10.193-4.751,14.77v31.04c0,19.316,15.715,35.032,35.032,35.032
	h86.232c4.466,0,8.084,3.62,8.084,8.084c0,4.465-3.618,8.084-8.084,8.084h-86.232c-28.231,0-51.2-22.968-51.2-51.2V254.61
	c-8.371,5.964-18.604,9.475-29.642,9.475H8.085C3.619,264.086,0,260.466,0,256.001z M342.232,495.832H126.653
	c-4.466,0-8.084,3.62-8.084,8.084s3.618,8.084,8.084,8.084h215.579c4.466,0,8.084-3.62,8.084-8.084S346.697,495.832,342.232,495.832
	z M125.109,131.151c-3.471,2.808-4.008,7.899-1.199,11.37c1.597,1.975,3.932,3,6.29,3c1.785,0,3.583-0.59,5.08-1.8
	c13.355-10.808,21.015-26.849,21.015-44.013c0-31.204-25.387-56.589-56.589-56.589S43.116,68.505,43.116,99.708
	c0,6.467,1.084,12.814,3.222,18.862c1.487,4.209,6.105,6.416,10.315,4.928c4.209-1.487,6.417-6.106,4.928-10.317
	c-1.524-4.313-2.297-8.846-2.297-13.474c0-22.289,18.132-40.421,40.421-40.421s40.421,18.132,40.421,40.421
	C140.126,111.968,134.653,123.428,125.109,131.151z M16.192,145.52c1.113,0,2.246-0.232,3.327-0.721
	c4.067-1.84,5.873-6.63,4.032-10.697c-4.899-10.831-7.384-22.403-7.384-34.395c0-46.062,37.475-83.537,83.537-83.537
	s83.537,37.474,83.537,83.537c0,4.465,3.618,8.084,8.084,8.084c4.466,0,8.084-3.62,8.084-8.084
	c0-54.978-44.727-99.704-99.705-99.704S0,44.731,0,99.708c0,14.306,2.969,28.12,8.823,41.058
	C10.173,143.753,13.114,145.52,16.192,145.52z M167.074,460.8c0-4.465-3.618-8.084-8.084-8.084H29.642
	c-4.466,0-8.084,3.62-8.084,8.084s3.618,8.084,8.084,8.084H158.99C163.455,468.885,167.074,465.265,167.074,460.8z M503.916,226.36
	c-10.823,0-20.517,4.935-26.947,12.671c-6.431-7.736-16.124-12.671-26.947-12.671c-4.466,0-8.084,3.62-8.084,8.084
	c0,4.465,3.618,8.084,8.084,8.084c10.401,0,18.863,8.463,18.863,18.863c0,4.465,3.618,8.084,8.084,8.084
	c4.466,0,8.084-3.62,8.084-8.084c0-10.401,8.463-18.863,18.863-18.863c4.466,0,8.084-3.62,8.084-8.084
	C512,229.98,508.382,226.36,503.916,226.36z M503.916,377.265h-53.37c-10.529-19.251-30.974-32.337-54.42-32.337h-8.084v-13.474
	c0-16.344-13.298-29.642-29.642-29.642h-43.116c-4.466,0-8.084,3.62-8.084,8.084s3.618,8.084,8.084,8.084H358.4
	c7.43,0,13.474,6.044,13.474,13.474v13.474h-75.913c0.297-0.843,0.46-1.75,0.46-2.695v-97.009c0-7.43,6.044-13.474,13.474-13.474
	h26.947c28.231,0,51.2-22.968,51.2-51.2v-68.839c2.294-4.578,3.919-9.543,4.751-14.77h31.727c0.036,0,0.072,0,0.109,0H460.8
	c16.535,0,30.431,11.515,34.091,26.947h-77.206c-3.271,0-6.507-0.448-9.615-1.334c-4.295-1.218-8.767,1.265-9.99,5.561
	c-1.223,4.294,1.267,8.767,5.56,9.99c4.55,1.296,9.274,1.952,14.044,1.952h86.232c4.466,0,8.084-3.62,8.084-8.084
	c0-28.231-22.969-51.2-51.2-51.2h-18.886l34.658-41.305c2.87-3.42,2.424-8.519-0.996-11.389
	c-10.476-8.79-23.756-12.975-37.373-11.785c-13.625,1.192-25.969,7.619-34.759,18.095L382.07,59.86
	c-2.87,3.42-2.424,8.52,0.996,11.389c3.421,2.87,8.519,2.424,11.389-0.996l21.374-25.472c10.628-12.664,28.382-15.91,42.554-8.792
	l-37.576,44.783h-46.237c-4.466,0-8.084,3.62-8.084,8.084s3.618,8.084,8.084,8.084h1.754c-3.659,15.432-17.556,26.947-34.091,26.947
	h-77.206c3.659-15.432,17.556-26.947,34.091-26.947h49.987c3.145,0,6.004-1.824,7.331-4.676c1.326-2.851,0.877-6.213-1.148-8.618
	l-53.744-63.77c5.744-2.893,12.194-4.145,18.761-3.571c9.321,0.816,17.767,5.213,23.782,12.381l17.681,21.071
	c2.869,3.42,7.969,3.866,11.389,0.996c3.42-2.869,3.866-7.969,0.996-11.389l-17.68-21.071c-8.79-10.477-21.134-16.902-34.759-18.095
	c-13.618-1.19-26.895,2.993-37.373,11.785c-1.644,1.38-2.672,3.358-2.856,5.497c-0.185,2.139,0.488,4.264,1.871,5.905l48.364,57.386
	h-32.602c-28.231,0-51.2,22.968-51.2,51.2c0,4.465,3.618,8.084,8.084,8.084h86.232c11.038,0,21.271-3.511,29.642-9.475v49.969
	c0,19.316-15.715,35.032-35.032,35.032h-26.947c-16.344,0-29.642,13.297-29.642,29.642v97.009c0,0.944,0.162,1.852,0.46,2.695
	H115.874c-23.445,0-43.892,13.086-54.42,32.337H8.084c-4.466,0-8.084,3.62-8.084,8.084s3.618,8.084,8.084,8.084h47.285
	c-0.966,4.34-1.475,8.847-1.475,13.474c0,16.344,13.298,29.642,29.642,29.642h234.712c4.466,0,8.084-3.62,8.084-8.084
	s-3.618-8.084-8.084-8.084H83.537c-7.43,0-13.474-6.044-13.474-13.474c0-25.259,20.55-45.811,45.811-45.811h280.253
	c25.26,0,45.811,20.55,45.811,45.811c0,7.43-6.044,13.474-13.474,13.474h-78.417c-4.466,0-8.084,3.62-8.084,8.084
	s3.618,8.084,8.084,8.084h78.417c16.344,0,29.642-13.297,29.642-29.642c0-4.626-0.51-9.134-1.475-13.474h47.285
	c4.466,0,8.084-3.62,8.084-8.084S508.382,377.265,503.916,377.265z M503.916,452.716H363.79c-4.466,0-8.084,3.62-8.084,8.084
	s3.618,8.084,8.084,8.084h140.126c4.466,0,8.084-3.62,8.084-8.084S508.382,452.716,503.916,452.716z M256,468.885
	c4.466,0,8.084-3.62,8.084-8.084s-3.618-8.084-8.084-8.084h-64.674c-4.466,0-8.084,3.62-8.084,8.084s3.618,8.084,8.084,8.084H256z"
	/>
</svg>