<?xml version="1.0" encoding="iso-8859-1"?>
<!-- Uploaded to: SVG Repo, www.svgrepo.com, Generator: SVG Repo Mixer Tools -->
<svg height="800px" width="800px" version="1.1" id="Layer_1" xmlns="http://www.w3.org/2000/svg" xmlns:xlink="http://www.w3.org/1999/xlink" 
	 viewBox="0 0 511.999 511.999" xml:space="preserve">
<polygon style="fill:#A3DC93;" points="471.146,77.648 449.359,143.009 503.827,121.222 503.827,77.648 "/>
<path style="fill:#CAED73;" d="M265.803,77.648c-23.966,0-43.574,19.608-43.574,43.574l248.918,21.787V77.648
	C471.146,77.648,265.803,77.648,265.803,77.648z"/>
<polygon style="fill:#FE9528;" points="437.376,121.222 355.13,121.222 333.343,382.667 459.163,382.667 "/>
<path style="fill:#FEC14D;" d="M222.228,121.222c-17.974,0-32.681,14.706-32.681,32.681v21.787
	c-18.02,0-32.681,14.661-32.681,32.681v174.297H355.13V121.222C355.13,121.222,222.228,121.222,222.228,121.222z"/>
<path style="fill:#4D392F;" d="M257.088,197.477c-27.374,0-49.566,22.191-49.566,49.566v132.017h99.131V247.043
	C306.653,219.668,284.462,197.477,257.088,197.477z"/>
<path style="fill:#FFA850;" d="M437.376,121.222v87.148c-18.02,0-32.681,14.661-32.681,32.681v141.616h88.238l-21.787-261.445
	C471.146,121.222,437.376,121.222,437.376,121.222z"/>
<polygon style="fill:#FD8300;" points="503.827,121.222 471.146,121.222 471.146,382.667 503.827,308.046 "/>
<path style="fill:#4B8D8F;" d="M503.827,308.046c-8.925,18.377-27.764,31.047-49.566,31.047l-32.681,81.702l32.681,81.702h49.566
	V308.046z"/>
<path style="fill:#63ABA1;" d="M404.695,308.046c-8.924,18.376-27.764,31.047-49.566,31.047c-21.801,0-40.642-12.67-49.566-31.047
	c-8.924,18.376-27.764,31.047-49.566,31.047s-40.642-12.67-49.566-31.047c-8.924,18.376-27.764,31.047-49.566,31.047
	s-40.642-12.67-49.566-31.047c-8.924,18.376-27.764,31.047-49.566,31.047s-40.641-12.67-49.566-31.047v194.45h446.091V339.092
	C432.46,339.093,413.62,326.423,404.695,308.046z"/>
<g>
	<path style="fill:#FFFFFF;" d="M165.037,412.625h-16.34c-4.513,0-8.17-3.657-8.17-8.17c0-4.513,3.657-8.17,8.17-8.17h16.34
		c4.513,0,8.17,3.657,8.17,8.17C173.207,408.968,169.55,412.625,165.037,412.625z"/>
	<path style="fill:#FFFFFF;" d="M462.431,477.986h-16.34c-4.513,0-8.17-3.657-8.17-8.17s3.657-8.17,8.17-8.17h16.34
		c4.513,0,8.17,3.657,8.17,8.17S466.944,477.986,462.431,477.986z"/>
	<path style="fill:#FFFFFF;" d="M363.3,445.305h-16.34c-4.513,0-8.17-3.657-8.17-8.17c0-4.513,3.657-8.17,8.17-8.17h16.34
		c4.513,0,8.17,3.657,8.17,8.17C371.47,441.648,367.813,445.305,363.3,445.305z"/>
	<path style="fill:#FFFFFF;" d="M65.906,445.305h-16.34c-4.513,0-8.17-3.657-8.17-8.17c0-4.513,3.657-8.17,8.17-8.17h16.34
		c4.513,0,8.17,3.657,8.17,8.17C74.076,441.648,70.419,445.305,65.906,445.305z"/>
</g>
<path d="M306.653,283.536c4.513,0,8.17-3.657,8.17-8.17v-28.323c0-31.836-25.899-57.736-57.736-57.736s-57.736,25.899-57.736,57.736
	v28.323c0,4.513,3.657,8.17,8.17,8.17s8.17-3.657,8.17-8.17v-28.323c0-22.825,18.57-41.395,41.395-41.395
	s41.395,18.57,41.395,41.395v28.323C298.483,279.878,302.141,283.536,306.653,283.536z"/>
<path d="M507.396,300.697c-4.061-1.972-8.948-0.279-10.918,3.78c-7.922,16.313-24.099,26.445-42.217,26.445
	s-34.294-10.133-42.217-26.445c-1.366-2.814-4.22-4.601-7.349-4.601c-3.129,0-5.983,1.788-7.349,4.601
	c-7.922,16.313-24.099,26.445-42.217,26.445s-34.294-10.133-42.217-26.445c-1.366-2.814-4.22-4.601-7.349-4.601
	s-5.983,1.788-7.349,4.601c-7.922,16.313-24.099,26.445-42.217,26.445c-18.118,0-34.294-10.133-42.217-26.445
	c-1.366-2.814-4.22-4.601-7.349-4.601c-3.129,0-5.983,1.788-7.349,4.601c-7.922,16.313-24.099,26.445-42.217,26.445
	s-34.294-10.133-42.217-26.445c-1.366-2.814-4.22-4.601-7.349-4.601c-3.129,0-5.983,1.788-7.349,4.601
	c-7.922,16.313-24.099,26.445-42.217,26.445s-34.294-10.133-42.217-26.445c-1.972-4.059-6.856-5.753-10.918-3.78
	c-4.059,1.972-5.751,6.86-3.78,10.918c10.516,21.655,32.856,35.648,56.914,35.648c19.409,0,37.698-9.106,49.566-23.996
	c11.867,14.89,30.157,23.996,49.566,23.996s37.698-9.106,49.566-23.996c11.867,14.89,30.157,23.996,49.566,23.996
	s37.698-9.106,49.566-23.996c11.867,14.89,30.157,23.996,49.566,23.996c19.409,0,37.698-9.106,49.566-23.996
	c11.867,14.89,30.157,23.996,49.566,23.996c24.058,0,46.399-13.993,56.914-35.648C513.147,307.556,511.454,302.668,507.396,300.697z
	"/>
<path d="M503.827,113.052H231.362c3.699-15.594,17.733-27.234,34.442-27.234h238.024c4.513,0,8.17-3.657,8.17-8.17
	c0-4.513-3.657-8.17-8.17-8.17H265.804c-26.003,0-47.58,19.284-51.201,44.299c-18.892,3.584-33.224,20.208-33.224,40.126v14.437
	c-18.624,3.796-32.681,20.303-32.681,40.031v98.042c0,4.513,3.657,8.17,8.17,8.17s8.17-3.657,8.17-8.17v-98.042
	c0-13.515,10.996-24.51,24.51-24.51c4.513,0,8.17-3.657,8.17-8.17v-21.787c0-13.515,10.996-24.51,24.51-24.51h124.731v177.02
	c0,4.513,3.657,8.17,8.17,8.17c4.513,0,8.17-3.657,8.17-8.17v-177.02h65.906v71.628c-18.624,3.796-32.681,20.303-32.681,40.031
	v34.315c0,4.513,3.657,8.17,8.17,8.17c4.513,0,8.17-3.657,8.17-8.17v-34.315c0-13.515,10.996-24.51,24.51-24.51
	c4.513,0,8.17-3.657,8.17-8.17v-78.978h58.28c4.513,0,8.17-3.657,8.17-8.17C511.998,116.709,508.34,113.052,503.827,113.052z"/>
<path d="M135.08,25.844c6.196,0,11.729,3.466,14.437,9.046c1.367,2.814,4.221,4.601,7.35,4.601s5.983-1.788,7.35-4.601
	c2.708-5.58,8.241-9.046,14.437-9.046c4.513,0,8.17-3.657,8.17-8.17s-3.657-8.17-8.17-8.17c-8.146,0-15.908,3.133-21.787,8.463
	c-5.879-5.33-13.641-8.463-21.787-8.463c-4.513,0-8.17,3.657-8.17,8.17S130.568,25.844,135.08,25.844z"/>
<path d="M35.949,72.171c6.196,0,11.729,3.466,14.437,9.046c1.367,2.814,4.221,4.601,7.35,4.601s5.983-1.788,7.35-4.601
	c2.708-5.58,8.241-9.046,14.437-9.046c4.513,0,8.17-3.657,8.17-8.17s-3.657-8.17-8.17-8.17c-8.146,0-15.908,3.133-21.787,8.463
	c-5.879-5.33-13.641-8.463-21.787-8.463c-4.513,0-8.17,3.657-8.17,8.17S31.437,72.171,35.949,72.171z"/>
</svg>