<?xml version="1.0" encoding="iso-8859-1"?>
<!-- Uploaded to: SVG Repo, www.svgrepo.com, Generator: SVG Repo Mixer Tools -->
<svg xmlns="http://www.w3.org/2000/svg" xmlns:xlink="http://www.w3.org/1999/xlink" version="1.1" id="Layer_1"  viewBox="0 0 454.478 454.478" xml:space="preserve" width="512" height="512">
<g>
	<rect x="7.5" y="389.649" style="fill:#FFD039;" width="439.478" height="25.499"/>
	<polygon style="fill:#FFD039;" points="329.232,343.898 128.242,343.898 128.242,342.398 135.742,282.398 123.742,282.398    129.742,211.898 156.742,201.408 159.872,202.328 170.172,205.348 182.242,208.898 185.912,208.168 249.742,195.408    267.732,208.898 275.232,298.898 294.732,298.898 296.232,237.398 315.732,237.398  "/>
	<polygon style="fill:#EAB932;" points="189.242,208.758 182.242,217.758 181.242,343.758 178.372,343.898 128.242,343.898    128.242,342.398 135.742,282.398 123.742,282.398 129.742,211.898 156.742,201.408 159.872,202.328 161.242,203.758    170.172,205.348 185.912,208.168  "/>
	<polygon style="fill:#EAB932;" points="252.242,199.758 249.242,343.758 282.242,343.758 267.732,208.898  "/>
	<circle style="fill:#EAB932;" cx="339.692" cy="102.315" r="72.717"/>
	<polygon style="fill:#EAB932;" points="78.582,364.398 97.892,343.898 128.242,343.898 212.242,343.898 329.232,343.898    354.662,343.898 368.172,364.398 400.992,364.398 422.232,388.878 32.252,388.878 45.762,364.398  "/>
	<path style="fill:#FFD039;" d="M339.692,52.068c27.75,0,50.25,22.5,50.25,50.25s-22.5,50.24-50.25,50.24s-50.25-22.49-50.25-50.24   S311.942,52.068,339.692,52.068z"/>
	<g>
		<path style="fill:#333333;" d="M7.5,396.382h439.478c4.142,0,7.5-3.358,7.5-7.5s-3.358-7.5-7.5-7.5h-21.325l-18.994-21.9    c-1.425-1.643-3.492-2.586-5.666-2.586h-28.782l-11.291-17.127c-1.388-2.105-3.74-3.372-6.262-3.372h-18.815l-12.668-99.938    c-0.475-3.747-3.663-6.557-7.44-6.557h-19.499c-4.071,0-7.398,3.248-7.498,7.317l-1.321,54.18h-5.279l-6.927-83.119    c-0.178-2.135-1.26-4.092-2.974-5.377l-17.999-13.5c-1.707-1.28-3.881-1.774-5.971-1.354l-65.684,13.137l-23.725-6.978    c-1.59-0.468-3.29-0.396-4.834,0.205l-26.999,10.5c-2.667,1.038-4.512,3.502-4.755,6.354l-6,70.496    c-0.178,2.092,0.529,4.163,1.95,5.709c1.42,1.546,3.424,2.426,5.523,2.426h3.504l-5.812,46.497H97.889    c-2.067,0-4.042,0.853-5.46,2.358l-17.085,18.141H45.763c-2.731,0-5.247,1.485-6.566,3.876l-11.375,20.61H7.5    c-4.142,0-7.5,3.358-7.5,7.5S3.358,396.382,7.5,396.382z M141.366,277.436c-1.424-1.613-3.471-2.537-5.623-2.537h-3.834    l4.911-57.701l12.011-4.671l-1.083,27.074c-0.166,4.139,3.056,7.628,7.194,7.794c0.103,0.004,0.204,0.006,0.305,0.006    c4.003,0,7.327-3.164,7.489-7.2l1.155-28.877l10.849,3.191V274.4c0,4.142,3.358,7.5,7.5,7.5s7.5-3.358,7.5-7.5v-59.348    l52.497-10.5V277.4c0,4.142,3.358,7.5,7.5,7.5s7.5-3.358,7.5-7.5v-66.996l3.305,2.479l8.725,103.194    c0.354,3.895,3.625,6.822,7.46,6.822c0.227,0,0.457-0.01,0.688-0.031c4.125-0.375,7.166-4.023,6.791-8.148l-0.756-8.32h11.286    c4.071,0,7.398-3.248,7.498-7.317l1.321-54.18h5.57l11.598,91.495H219.74v-55.997c0-4.142-3.358-7.5-7.5-7.5s-7.5,3.358-7.5,7.5    v55.997h-68.187l6.633-53.067C143.453,281.195,142.79,279.049,141.366,277.436z M50.19,371.895h55.421c4.142,0,7.5-3.358,7.5-7.5    s-3.358-7.5-7.5-7.5h-9.662l5.179-5.499H350.62l3.625,5.499h-13.101c-4.142,0-7.5,3.358-7.5,7.5s3.358,7.5,7.5,7.5h56.426    l8.227,9.486H44.954L50.19,371.895z"/>
		<path style="fill:#333333;" d="M446.978,409.88H7.5c-4.142,0-7.5,3.358-7.5,7.5s3.358,7.5,7.5,7.5h439.478    c4.142,0,7.5-3.358,7.5-7.5S451.12,409.88,446.978,409.88z"/>
		<path style="fill:#333333;" d="M180.741,325.398c4.142,0,7.5-3.358,7.5-7.5v-13.5c0-4.142-3.358-7.5-7.5-7.5s-7.5,3.358-7.5,7.5    v13.5C173.241,322.04,176.599,325.398,180.741,325.398z"/>
		<path style="fill:#333333;" d="M339.692,160.062c31.842,0,57.748-25.905,57.748-57.747c0-31.842-25.905-57.748-57.748-57.748    s-57.748,25.905-57.748,57.748C281.944,134.157,307.85,160.062,339.692,160.062z M339.692,59.568    c23.571,0,42.748,19.176,42.748,42.748c0,23.571-19.176,42.747-42.748,42.747s-42.748-19.176-42.748-42.747    C296.944,78.744,316.121,59.568,339.692,59.568z"/>
	</g>
</g>















</svg>