<?xml version="1.0" encoding="iso-8859-1"?>
<!-- Uploaded to: SVG Repo, www.svgrepo.com, Generator: SVG Repo Mixer Tools -->
<svg version="1.1" id="Layer_1" xmlns="http://www.w3.org/2000/svg" xmlns:xlink="http://www.w3.org/1999/xlink" 
	 viewBox="0 0 512 512" xml:space="preserve">
<path style="fill:#FFDA44;" d="M438.335,182.335v147.331C438.335,430.205,356.54,512,256,512S73.665,430.205,73.665,329.665V182.335
	C73.665,81.795,155.46,0,256,0S438.335,81.795,438.335,182.335z"/>
<path style="fill:#DDB200;" d="M433.366,140.016H78.634c-3.241,13.587-4.968,27.754-4.968,42.318v66.351h364.669v-66.351
	C438.335,167.77,436.607,153.603,433.366,140.016z"/>
<g>
	<path style="fill:#FFFFFF;" d="M130.873,189.127h115.984v35.527h-15.673V204.8h-22.622c-2.988,17.189-17.993,30.302-36.018,30.302
		c-18.035,0-33.04-13.113-36.028-30.302H115.2v-33.437h15.673C130.873,171.363,130.873,189.127,130.873,189.127z"/>
	<path style="fill:#FFFFFF;" d="M327.314,164.049h70.008V204.8h-21.076c-3.041,17.126-18.024,30.177-35.997,30.177
		c-17.983,0-32.967-13.051-36.007-30.177h-13.5v-15.673h90.906v-9.404h-54.335L327.314,164.049L327.314,164.049z"/>
</g>
<rect x="298.057" y="140.016" style="fill:#CCA400;" width="104.49" height="0.261"/>
<path d="M256,0C155.46,0,73.665,81.795,73.665,182.335v147.331C73.665,430.205,155.46,512,256,512s182.335-81.795,182.335-182.335
	V182.335C438.335,81.795,356.54,0,256,0z M316.573,27.07l-97.533,97.534h-65.574l13.25-13.25l-11.082-11.082l-24.334,24.334H99.653
	c6.265-16.914,15.205-32.538,26.297-46.367h51.718l-11.585,11.585l11.082,11.082l69.102-69.102L235.186,20.72l-41.843,41.843
	h-53.107c30.003-29.01,70.833-46.89,115.764-46.89C277.359,15.673,297.789,19.717,316.573,27.07z M89.339,329.665V326.4h52.115
	L95.02,372.834C91.322,359.059,89.339,344.591,89.339,329.665z M342.113,472.307l-83.867-83.867h65.574l25.657,25.657l11.083-11.082
	l-14.574-14.574h65.963c-5.795,15.324-13.785,29.577-23.589,42.374l-17.353-17.353l-11.083,11.082l18.296,18.296
	C367.641,454.258,355.493,464.199,342.113,472.307z M416.998,372.767H204.991l46.367-46.367h81.18v-15.673h-65.507l29.815-29.815
	l-11.083-11.082L160.859,394.734l11.082,11.083l17.376-17.376h46.763l91.644,91.644c-21.736,10.405-46.06,16.241-71.724,16.241
	c-44.392,0-84.784-17.449-114.684-45.845h128.529v-15.673H142.95l18.543-18.543l-11.082-11.083l-26.277,26.277
	c-9.792-12.656-17.804-26.75-23.662-41.912L225.66,264.359h158.078v-15.673H280.294v-34.482H264.62v34.482h-17.763v-13.584h-15.673
	v13.584H103.706v15.673h99.789l-46.367,46.367H89.339V182.335c0-14.523,1.872-28.617,5.379-42.057h191.845v-15.673h-45.358
	l46.367-46.367h27.203V62.563h-11.529l28.606-28.606c14.703,7.547,28.138,17.222,39.913,28.606h-45.496v15.673h59.78
	c22.894,28.543,36.612,64.746,36.612,104.098v66.351h-28.473v15.673h28.473v65.306C422.661,344.567,420.684,359.012,416.998,372.767
	z"/>
<rect x="298.057" y="124.604" width="104.49" height="15.673"/>
<rect x="342.988" y="310.721" width="66.873" height="15.673"/>
<path d="M397.322,164.049h-70.008v15.673h54.335v9.404h-90.906V204.8h13.503c3.036,17.124,18.018,30.171,35.999,30.171
	c17.981,0,32.962-13.048,35.999-30.171h21.079V164.049z M340.245,219.298c-9.29,0-17.176-6.098-19.887-14.498h39.773
	C357.421,213.2,349.535,219.298,340.245,219.298z"/>
<rect x="290.743" y="164.049" width="26.122" height="15.673"/>
<path d="M130.873,171.363H115.2V204.8h21.316c2.983,17.188,17.995,30.302,36.023,30.302s33.04-13.115,36.023-30.302h22.622v19.853
	h15.673v-35.527H130.873V171.363z M172.539,219.429c-9.339,0-17.265-6.16-19.935-14.629h39.868
	C189.804,213.269,181.878,219.429,172.539,219.429z"/>
</svg>