<?xml version="1.0" encoding="iso-8859-1"?>
<!-- Uploaded to: SVG Repo, www.svgrepo.com, Generator: SVG Repo Mixer Tools -->
<svg version="1.1" id="Layer_1" xmlns="http://www.w3.org/2000/svg" xmlns:xlink="http://www.w3.org/1999/xlink" 
	 viewBox="0 0 502 502" xml:space="preserve">
<g>
	<path style="fill:#CCCCCC;" d="M251.332,492L251.332,492c0,0,183.904-22.573,183.904-274.859H66.764
		C66.764,469.427,250.668,492,250.668,492l0,0H251.332z"/>
	<rect x="115.562" y="113.57" style="fill:#CCCCCC;" width="270.876" height="103.57"/>
	<rect x="215.149" y="10" style="fill:#29ABE2;" width="71.702" height="43.818"/>
	<rect x="215.149" y="53.818" style="fill:#FBB03B;" width="71.702" height="59.752"/>
	<g>
		<path d="M205.149,103.57h-89.587c-5.523,0-10,4.478-10,10v93.57H66.765c-5.523,0-10,4.478-10,10
			c0,58.994,9.974,110.655,29.645,153.549c15.903,34.675,38.115,63.698,66.019,86.264C201.347,496.512,250.243,502,250.668,502
			h0.663c0.407,0,0.814-0.024,1.219-0.074c1.993-0.245,49.367-6.436,97.021-44.973c27.904-22.565,50.116-51.589,66.019-86.264
			c19.671-42.894,29.645-94.555,29.645-153.549c0-5.522-4.477-10-10-10h-38.797v-93.57c0-5.522-4.477-10-10-10h-89.587V10
			c0-5.522-4.477-10-10-10h-71.702c-5.523,0-10,4.478-10,10L205.149,103.57L205.149,103.57z M225.149,20h51.702v23.818h-51.702
			L225.149,20L225.149,20z M225.149,63.818h51.702v39.752h-51.702L225.149,63.818L225.149,63.818z M125.562,123.57h89.587h71.702
			h89.587v83.57H125.562V123.57z M425.138,227.141c-1.895,95.936-31.249,167.769-87.324,213.597
			C297.998,473.276,257.52,480.893,251,481.94c-6.52-1.048-46.994-8.663-86.809-41.199
			c-56.079-45.828-85.435-117.662-87.329-213.601h348.276V227.141z"/>
		<path d="M251,310.711c-5.523,0-10,4.478-10,10v124.815c0,5.522,4.477,10,10,10s10-4.478,10-10V320.711
			C261,315.188,256.523,310.711,251,310.711z"/>
		<path d="M251,248.593c-5.523,0-10,4.478-10,10V281c0,5.522,4.477,10,10,10s10-4.478,10-10v-22.407
			C261,253.07,256.523,248.593,251,248.593z"/>
		<path d="M336.645,155.355h-171.29c-5.523,0-10,4.478-10,10s4.477,10,10,10h171.289c5.523,0,10-4.478,10-10
			S342.167,155.355,336.645,155.355z"/>
		<path d="M347,263c-14.888,0-27,12.112-27,27s12.112,27,27,27s27-12.112,27-27S361.888,263,347,263z M347,297c-3.86,0-7-3.141-7-7
			s3.14-7,7-7s7,3.141,7,7S350.86,297,347,297z"/>
		<path d="M155,263c-14.888,0-27,12.112-27,27s12.112,27,27,27s27-12.112,27-27S169.888,263,155,263z M155,297c-3.86,0-7-3.141-7-7
			s3.14-7,7-7c3.86,0,7,3.141,7,7S158.86,297,155,297z"/>
	</g>
</g>
</svg>