<?xml version="1.0" encoding="iso-8859-1"?>
<!-- Uploaded to: SVG Repo, www.svgrepo.com, Generator: SVG Repo Mixer Tools -->
<svg version="1.1" id="Layer_1" xmlns="http://www.w3.org/2000/svg" xmlns:xlink="http://www.w3.org/1999/xlink" 
	 viewBox="0 0 512 512" xml:space="preserve">
<g transform="translate(1 1)">
	<g>
		<polygon style="fill:#FFDD09;" points="7.533,502.467 84.333,502.467 84.333,468.333 7.533,468.333 		"/>
		<polygon style="fill:#FFDD09;" points="425.667,502.467 502.467,502.467 502.467,468.333 425.667,468.333 		"/>
	</g>
	<path style="fill:#FD9808;" d="M425.667,502.467H263.533V21.187c0-7.68,5.973-13.653,13.653-13.653H411.16
		c8.533,0,14.507,5.973,14.507,13.653V502.467z"/>
	<path style="fill:#FFFFFF;" d="M246.467,502.467H84.333V21.187c0-7.68,5.973-13.653,13.653-13.653H231.96
		c8.533,0,14.507,5.973,14.507,13.653V502.467z"/>
	<path style="fill:#FFDD09;" d="M400.067,502.467H109.933V21.187c0-7.68,5.973-13.653,13.653-13.653H385.56
		c8.533,0,14.507,5.973,14.507,13.653V502.467z"/>
	<path style="fill:#15A143;" d="M332.653,203.8H177.347c-4.267,0-7.68-3.413-7.68-7.68V92.013c0-4.267,3.413-7.68,7.68-7.68H331.8
		c5.12,0,8.533,3.413,8.533,7.68v103.253C340.333,200.387,336.92,203.8,332.653,203.8"/>
	<path style="fill:#1CD759;" d="M307.053,203.8H177.347c-4.267,0-7.68-3.413-7.68-7.68V92.013c0-4.267,3.413-7.68,7.68-7.68H306.2
		c5.12,0,8.533,3.413,8.533,7.68v103.253C314.733,200.387,311.32,203.8,307.053,203.8"/>
	<path style="fill:#15A143;" d="M323.267,451.267H186.733v-77.653c0-4.267,3.413-7.68,7.68-7.68h120.32
		c4.267,0,7.68,3.413,7.68,7.68v77.653H323.267z"/>
	<path style="fill:#1CD759;" d="M297.667,451.267H186.733v-77.653c0-4.267,3.413-7.68,7.68-7.68h94.72c4.267,0,7.68,3.413,7.68,7.68
		v77.653H297.667z"/>
	<path d="M391.533,511h-17.067c-5.12,0-8.533-3.413-8.533-8.533c0-5.12,3.413-8.533,8.533-8.533H383V485.4
		c0-5.12,3.413-8.533,8.533-8.533s8.533,3.413,8.533,8.533v17.067C400.067,507.587,396.653,511,391.533,511z"/>
	<path d="M340.333,511H306.2c-5.12,0-8.533-3.413-8.533-8.533c0-5.12,3.413-8.533,8.533-8.533h34.133
		c5.12,0,8.533,3.413,8.533,8.533C348.867,507.587,345.453,511,340.333,511z M272.067,511h-34.133c-5.12,0-8.533-3.413-8.533-8.533
		c0-5.12,3.413-8.533,8.533-8.533h34.133c5.12,0,8.533,3.413,8.533,8.533C280.6,507.587,277.187,511,272.067,511z M203.8,511
		h-34.133c-5.12,0-8.533-3.413-8.533-8.533c0-5.12,3.413-8.533,8.533-8.533H203.8c5.12,0,8.533,3.413,8.533,8.533
		C212.333,507.587,208.92,511,203.8,511z"/>
	<path d="M135.533,511h-17.067c-5.12,0-8.533-3.413-8.533-8.533V485.4c0-5.12,3.413-8.533,8.533-8.533S127,480.28,127,485.4v8.533
		h8.533c5.12,0,8.533,3.413,8.533,8.533C144.067,507.587,140.653,511,135.533,511z"/>
	<path d="M118.467,461.507c-5.12,0-8.533-3.413-8.533-8.533v-32.427c0-5.12,3.413-8.533,8.533-8.533s8.533,3.413,8.533,8.533v32.427
		C127,457.24,123.587,461.507,118.467,461.507z M118.467,395.8c-5.12,0-8.533-3.413-8.533-8.533V354.84
		c0-5.12,3.413-8.533,8.533-8.533S127,349.72,127,354.84v32.427C127,391.533,123.587,395.8,118.467,395.8z M118.467,330.093
		c-5.12,0-8.533-3.413-8.533-8.533v-32.427c0-5.12,3.413-8.533,8.533-8.533s8.533,3.413,8.533,8.533v32.427
		C127,325.827,123.587,330.093,118.467,330.093z M118.467,264.387c-5.12,0-8.533-3.413-8.533-8.533v-32.427
		c0-5.12,3.413-8.533,8.533-8.533s8.533,3.413,8.533,8.533v32.427C127,260.12,123.587,264.387,118.467,264.387z M118.467,198.68
		c-5.12,0-8.533-3.413-8.533-8.533V157.72c0-5.12,3.413-8.533,8.533-8.533S127,152.6,127,157.72v32.427
		C127,194.413,123.587,198.68,118.467,198.68z M118.467,132.973c-5.12,0-8.533-3.413-8.533-8.533V91.16
		c0-5.12,3.413-8.533,8.533-8.533S127,86.04,127,91.16v32.427C127,128.707,123.587,132.973,118.467,132.973z"/>
	<path d="M118.467,67.267c-5.12,0-8.533-3.413-8.533-8.533V41.667c0-5.12,3.413-8.533,8.533-8.533h17.067
		c5.12,0,8.533,3.413,8.533,8.533s-3.413,8.533-8.533,8.533H127v8.533C127,63.853,123.587,67.267,118.467,67.267z"/>
	<path d="M340.333,50.2H306.2c-5.12,0-8.533-3.413-8.533-8.533s3.413-8.533,8.533-8.533h34.133c5.12,0,8.533,3.413,8.533,8.533
		S345.453,50.2,340.333,50.2z M272.067,50.2h-34.133c-5.12,0-8.533-3.413-8.533-8.533s3.413-8.533,8.533-8.533h34.133
		c5.12,0,8.533,3.413,8.533,8.533S277.187,50.2,272.067,50.2z M203.8,50.2h-34.133c-5.12,0-8.533-3.413-8.533-8.533
		s3.413-8.533,8.533-8.533H203.8c5.12,0,8.533,3.413,8.533,8.533S208.92,50.2,203.8,50.2z"/>
	<path d="M391.533,67.267c-5.12,0-8.533-3.413-8.533-8.533V50.2h-8.533c-5.12,0-8.533-3.413-8.533-8.533s3.413-8.533,8.533-8.533
		h17.067c5.12,0,8.533,3.413,8.533,8.533v17.067C400.067,63.853,396.653,67.267,391.533,67.267z"/>
	<path d="M391.533,461.507c-5.12,0-8.533-3.413-8.533-8.533v-32.427c0-5.12,3.413-8.533,8.533-8.533s8.533,3.413,8.533,8.533v32.427
		C400.067,457.24,396.653,461.507,391.533,461.507z M391.533,395.8c-5.12,0-8.533-3.413-8.533-8.533V354.84
		c0-5.12,3.413-8.533,8.533-8.533s8.533,3.413,8.533,8.533v32.427C400.067,391.533,396.653,395.8,391.533,395.8z M391.533,330.093
		c-5.12,0-8.533-3.413-8.533-8.533v-32.427c0-5.12,3.413-8.533,8.533-8.533s8.533,3.413,8.533,8.533v32.427
		C400.067,325.827,396.653,330.093,391.533,330.093z M391.533,264.387c-5.12,0-8.533-3.413-8.533-8.533v-32.427
		c0-5.12,3.413-8.533,8.533-8.533s8.533,3.413,8.533,8.533v32.427C400.067,260.12,396.653,264.387,391.533,264.387z M391.533,198.68
		c-5.12,0-8.533-3.413-8.533-8.533V157.72c0-5.12,3.413-8.533,8.533-8.533s8.533,3.413,8.533,8.533v32.427
		C400.067,194.413,396.653,198.68,391.533,198.68z M391.533,132.973c-5.12,0-8.533-3.413-8.533-8.533V91.16
		c0-5.12,3.413-8.533,8.533-8.533s8.533,3.413,8.533,8.533v32.427C400.067,128.707,396.653,132.973,391.533,132.973z"/>
	<path d="M92.867,511H-1v-51.2h93.867V511z M16.067,493.933H75.8v-17.067H16.067V493.933z"/>
	<path d="M511,511h-93.867v-51.2H511V511z M434.2,493.933h59.733v-17.067H434.2V493.933z"/>
	<path d="M340.333,306.2H267.8c-11.947,0-21.333-9.387-21.333-21.333c0-11.947,9.387-21.333,21.333-21.333h72.533V306.2z
		 M267.8,280.6c-2.56,0-4.267,1.707-4.267,4.267c0,2.56,1.707,4.267,4.267,4.267h55.467V280.6H267.8z"/>
	<path d="M345.453,331.8h-17.92c-11.093,0-20.48-9.387-20.48-20.48v-22.187h17.067V280.6h-17.067v-22.187
		c0-11.093,9.387-20.48,20.48-20.48h17.92c11.093,0,20.48,9.387,20.48,20.48v52.053C365.933,322.413,356.547,331.8,345.453,331.8z
		 M323.267,306.2v5.12c0,1.707,1.707,3.413,3.413,3.413h17.92c1.707,0,3.413-1.707,3.413-3.413v-52.053
		c0-1.707-1.707-3.413-3.413-3.413h-17.92c-1.707,0-3.413,1.707-3.413,3.413v4.267h17.067V306.2H323.267z"/>
	<path d="M332.653,212.333H177.347c-9.387,0-16.213-7.68-16.213-16.213V92.013c0-8.533,7.68-16.213,16.213-16.213H331.8
		c9.387,0,17.067,7.68,17.067,16.213v103.253C348.867,204.653,341.187,212.333,332.653,212.333z M331.8,92.013l-154.453,0.853
		L178.2,196.12l153.6-0.853V92.013z M332.653,195.267L332.653,195.267L332.653,195.267z"/>
	<rect x="203.8" y="84.333" width="17.067" height="128"/>
	<rect x="289.133" y="84.333" width="17.067" height="128"/>
	<rect x="246.467" y="84.333" width="17.067" height="119.467"/>
	<path d="M331.8,459.8H178.2v-86.187c0-9.387,7.68-16.213,16.213-16.213h120.32c9.387,0,16.213,7.68,16.213,16.213V459.8H331.8z
		 M195.267,442.733h119.467v-69.12l-120.32,0.853L195.267,442.733z"/>
	<path d="M348.867,459.8H161.133c-5.12,0-8.533-3.413-8.533-8.533s3.413-8.533,8.533-8.533h187.733c5.12,0,8.533,3.413,8.533,8.533
		S353.987,459.8,348.867,459.8z"/>
	<path d="M434.2,511H75.8V21.187C75.8,9.24,86.04-1,97.987-1H411.16c12.8,0,23.04,10.24,23.04,22.187V511z M92.867,493.933h324.267
		V21.187c0-2.56-2.56-5.12-5.12-5.12H97.987c-2.56,0-5.12,2.56-5.12,5.12V493.933z"/>
</g>
</svg>