<?xml version="1.0" encoding="iso-8859-1"?>
<!-- Uploaded to: SVG Repo, www.svgrepo.com, Generator: SVG Repo Mixer Tools -->
<svg height="800px" width="800px" version="1.1" id="Layer_1" xmlns="http://www.w3.org/2000/svg" xmlns:xlink="http://www.w3.org/1999/xlink" 
	 viewBox="0 0 503.467 503.467" xml:space="preserve">
<g transform="translate(1 1)">
	<path style="fill:#AAB1BA;" d="M365.08,240.493c11.947-6.827,16.213-22.187,9.387-34.133c-3.413-5.973-8.533-9.387-13.653-11.093
		c0.853-5.973,0.853-11.947-2.56-17.92c-6.827-11.947-22.187-16.213-34.133-9.387c-11.947,6.827-16.213,22.187-9.387,34.133
		l-64,36.693l-64-36.693c6.827-11.947,2.56-27.307-9.387-34.133c-11.947-6.827-27.307-2.56-34.133,9.387
		c-3.413,5.12-4.267,11.947-2.56,17.92c-5.973,1.707-11.093,5.973-13.653,11.093c-6.827,11.947-2.56,27.307,9.387,34.133
		c11.947,6.827,27.307,2.56,34.133-9.387l46.933,27.307v0.853l-46.933,27.307c-6.827-11.947-22.187-16.213-34.133-9.387
		c-11.947,6.827-16.213,22.187-9.387,34.133c3.413,5.973,8.533,9.387,13.653,11.093c-0.853,5.973-0.853,11.947,2.56,17.92
		c6.827,11.947,22.187,16.213,34.133,9.387c11.947-6.827,16.213-22.187,9.387-34.133l64-36.693l64,36.693
		c-6.827,11.947-2.56,27.307,9.387,34.133c11.947,6.827,27.307,2.56,34.133-9.387c3.413-5.12,4.267-11.947,2.56-17.92
		c5.973-1.707,11.093-5.973,13.653-11.093c6.827-11.947,2.56-27.307-9.387-34.133c-11.947-6.827-27.307-2.56-34.133,9.387
		l-47.787-27.307l47.787-27.307C337.774,243.053,353.134,247.32,365.08,240.493L365.08,240.493z M412.014,54.467v384L249.88,498.2
		L87.747,438.467v-384H412.014L412.014,54.467z"/>
	<g>
		<path style="fill:#E4F2DE;" d="M374.467,206.36c6.827,11.947,2.56,27.307-9.387,34.133c-11.947,6.827-27.307,2.56-34.133-9.387
			l-47.787,27.307l-33.28,19.627l-64,36.693c6.827,11.947,2.56,27.307-9.387,34.133c-11.947,6.827-27.307,2.56-34.133-9.387
			c-3.413-5.12-4.267-11.947-2.56-17.92c-5.973-1.707-11.093-5.973-13.653-11.093c-6.827-11.947-2.56-27.307,9.387-34.133
			s27.307-2.56,34.133,9.387l46.933-27.307l34.133-19.627l64-36.693c-6.827-11.947-2.56-27.307,9.387-34.133
			c11.947-6.827,27.307-2.56,34.133,9.387c3.413,5.12,4.267,11.947,2.56,17.92C365.934,196.974,371.054,200.387,374.467,206.36"/>
		<path style="fill:#E4F2DE;" d="M365.08,277.187c11.947,6.827,16.213,22.187,9.387,34.133c-3.413,5.973-8.533,9.387-13.653,11.093
			c0.853,5.973,0.853,11.947-2.56,17.92c-6.827,11.947-22.187,16.213-34.133,9.387c-11.947-6.827-16.213-22.187-9.387-34.133
			l-64-36.693l33.28-19.627l47.787,27.307C337.774,274.627,353.134,270.36,365.08,277.187z M249.88,239.64l-34.133,19.627v-0.853
			l-46.933-27.307c-6.827,11.947-22.187,16.213-34.133,9.387c-11.947-6.827-16.213-22.187-9.387-34.133
			c3.413-5.973,8.533-9.387,13.653-11.093c-0.853-5.973-0.853-11.947,2.56-17.92c6.827-11.947,22.187-16.213,34.133-9.387
			c11.947,6.827,16.213,22.187,9.387,34.133L249.88,239.64z"/>
	</g>
	<path style="fill:#FFD0A1;" d="M463.214,3.267c18.773,0,34.133,15.36,34.133,34.133s-15.36,34.133-34.133,34.133
		c-12.8,0-23.893-6.827-29.013-17.067h-21.333h-0.853h-0.853H87.747H66.414c-5.973,10.24-17.067,17.067-29.867,17.067
		c-18.773,0-34.133-15.36-34.133-34.133S17.773,3.267,36.547,3.267c12.8,0,23.893,6.827,29.867,17.067H434.2
		C439.32,10.093,450.414,3.267,463.214,3.267"/>
</g>
<path style="fill:#51565F;" d="M250.88,503.467c-0.853,0-0.853,0-1.707,0L87.04,443.733c-1.707-0.853-2.56-2.56-2.56-4.267V89.6
	c0-2.56,1.707-4.267,4.267-4.267s4.267,1.707,4.267,4.267v347.307l157.867,58.027l157.867-58.027V55.467
	c0-2.56,1.707-4.267,4.267-4.267H435.2c1.707,0,2.56,0.853,3.413,1.707c5.12,9.387,15.36,15.36,25.6,15.36
	c16.213,0,29.867-13.653,29.867-29.867S480.427,8.533,464.214,8.533c-10.24,0-20.48,5.973-25.6,15.36
	c-0.853,1.707-2.56,1.707-3.413,1.707H67.414c-1.707,0-2.56-0.853-3.413-1.707c-5.12-9.387-15.36-15.36-25.6-15.36
	C22.187,8.533,8.534,22.187,8.534,38.4S22.187,68.267,38.4,68.267c10.24,0,20.48-5.973,25.6-15.36
	c0.853-1.707,2.56-1.707,3.413-1.707H378.88c2.56,0,4.267,1.707,4.267,4.267c0,2.56-1.707,4.267-4.267,4.267H69.973
	C63.147,69.974,51.2,76.8,38.4,76.8C17.067,76.8,0,59.733,0,38.4S17.067,0,38.4,0c12.8,0,24.747,6.827,31.573,17.067h363.52
	C440.32,6.827,452.267,0,465.067,0c21.333,0,38.4,17.067,38.4,38.4s-17.067,38.4-38.4,38.4c-12.8,0-24.747-5.973-31.573-17.067
	h-15.36v379.733c0,1.707-0.853,3.413-2.56,4.267L253.44,503.467C251.734,503.467,251.734,503.467,250.88,503.467z M337.067,358.4
	c-5.12,0-10.24-1.707-14.507-4.267c-12.8-7.68-17.92-23.04-12.8-36.693l-58.88-34.133L192,317.44
	c2.56,5.973,2.56,11.947,0.853,18.773c-1.707,7.68-6.827,13.653-13.653,17.92c-13.653,8.533-32.427,3.413-40.107-11.093
	c-3.413-5.12-4.267-11.093-3.413-17.067c-5.12-2.56-10.24-6.827-12.8-11.947c-8.533-13.653-3.413-32.427,11.093-40.107
	c6.827-4.267,14.507-5.12,22.187-2.56c5.973,1.707,11.947,5.12,15.36,10.24l37.547-21.333l-37.547-21.333
	c-4.267,5.12-9.387,8.533-15.36,10.24c-7.68,1.707-15.36,0.853-22.187-2.56c-13.653-8.533-18.773-26.453-11.093-40.107
	c3.413-5.12,7.68-9.387,12.8-11.947c-0.853-5.973,0.853-11.947,3.413-17.067c4.267-6.827,10.24-11.947,17.92-13.653
	s15.36-0.853,22.187,2.56c6.827,4.267,11.947,10.24,13.653,17.92c1.707,5.973,0.853,12.8-0.853,18.773l58.88,34.133l58.88-34.133
	c-5.12-13.653,0-29.013,12.8-36.693c13.653-8.533,32.427-3.413,40.107,11.093c3.413,5.12,4.267,11.093,3.413,17.067
	c5.12,2.56,10.24,6.827,12.8,11.947c8.533,13.653,3.413,32.427-11.093,40.107c-12.8,7.68-29.013,4.267-37.547-6.827l-37.547,21.333
	l37.547,21.333c8.533-11.093,24.747-14.507,37.547-6.827c13.653,8.533,18.773,26.453,11.093,40.107
	c-3.413,5.12-7.68,9.387-12.8,11.947c0.853,5.973-0.853,11.947-3.413,17.067c-4.267,6.827-10.24,11.947-17.92,13.653
	C342.187,358.4,339.627,358.4,337.067,358.4z M259.414,279.04l58.027,33.28c0.853,0.853,1.707,1.707,1.707,2.56
	c0,0.853,0,2.56-0.853,3.413c-5.973,10.24-2.56,23.04,7.68,28.16c5.12,2.56,10.24,3.413,16.213,1.707
	c5.12-1.707,10.24-5.12,12.8-9.387s3.413-9.387,2.56-14.507c-0.853-2.56,0.853-4.267,2.56-5.12c5.12-1.707,9.387-5.12,11.947-9.387
	c5.973-10.24,2.56-23.04-7.68-28.16c-10.24-5.973-23.04-2.56-28.16,7.68c-0.853,0.853-1.707,1.707-2.56,1.707
	c-0.853,0-2.56,0-3.413-0.853l-45.227-26.453L259.414,279.04z M147.627,279.04c-3.413,0-6.827,0.853-10.24,2.56
	c-10.24,5.973-13.653,18.773-7.68,28.16c2.56,4.267,6.827,7.68,11.947,9.387c1.707,0.853,3.413,2.56,2.56,5.12
	c-0.853,5.12,0,10.24,2.56,14.507c5.973,10.24,18.773,13.653,28.16,7.68c5.12-2.56,8.533-7.68,9.387-12.8
	c1.707-5.12,0.853-11.093-1.707-16.213c-0.853-0.853-0.853-2.56-0.853-3.413c0-0.853,0.853-1.707,1.707-2.56l64-36.693l0,0
	l33.28-19.627l0,0l46.933-27.307c1.707-0.853,4.267-0.853,5.973,1.707c5.973,10.24,18.773,13.653,28.16,7.68
	c10.24-5.973,13.653-18.773,7.68-28.16c-2.56-4.267-6.827-7.68-11.947-9.387c-1.707-0.853-3.413-2.56-2.56-5.12
	c0.853-5.12,0-10.24-2.56-14.507l0,0c-5.973-10.24-18.773-13.653-28.16-7.68c-10.24,5.973-13.653,18.773-7.68,28.16
	c0.853,0.853,0.853,2.56,0.853,3.413c0,0.853-0.853,1.707-1.707,2.56l-64,36.693l0,0l0,0l-81.067,46.933
	c-0.853,0.853-2.56,0.853-3.413,0c-0.853,0-1.707-0.853-2.56-1.707c-2.56-5.12-7.68-8.533-12.8-9.387
	C151.893,279.04,150.187,279.04,147.627,279.04z M169.814,227.84c0.853,0,1.707,0,2.56,0.853l45.227,25.6l25.6-14.507l-58.027-33.28
	c-0.853-0.853-1.707-1.707-1.707-2.56c0-0.853,0-2.56,0-3.413c2.56-5.12,3.413-10.24,1.707-16.213
	c-1.707-5.12-5.12-10.24-9.387-12.8c-5.12-2.56-10.24-3.413-16.213-1.707c-5.12,1.707-10.24,5.12-12.8,9.387
	c-2.56,4.267-3.413,9.387-2.56,14.507c0.853,2.56-0.853,4.267-2.56,5.12c-5.12,1.707-9.387,5.12-11.947,9.387
	c-5.973,10.24-2.56,23.04,7.68,28.16c5.12,2.56,10.24,3.413,16.213,1.707c5.12-1.707,10.24-5.12,12.8-9.387
	c0.853-0.853,1.707-1.707,2.56-1.707C168.96,227.84,169.814,227.84,169.814,227.84z"/>
</svg>